<svg width="743" height="872" viewBox="0 0 743 872" fill="none" xmlns="http://www.w3.org/2000/svg">
<path d="M671.724 861.714C622.138 845.197 531.098 784.041 531.098 767.248C531.098 764.377 519.794 743.654 505.978 721.198C490.543 696.11 472.97 650.622 460.402 603.22C441.958 533.658 440.02 514.864 440.695 412.103C441.34 313.712 439.887 298.134 430.06 298.134C411.396 298.134 285.217 326.266 271.381 333.512C264.342 337.198 253.758 340.215 247.861 340.215C225.774 340.215 229.464 353.838 254.629 365.201L280.7 376.973L276.878 416.455C274.775 438.17 271.149 464.616 268.819 475.224C263.806 498.043 262.498 497.875 329.344 483.001C387.243 470.117 406.558 472.692 401.095 492.568C398.319 502.67 385.286 507.365 341.71 513.962C270.251 524.781 263.008 530.472 268.673 571.355C271.102 588.88 275.13 644.942 277.626 695.937L282.163 788.654L262.605 797.133C222.807 814.388 192.016 788.897 171.408 721.635C159.988 684.363 160.054 683.874 176.516 683.874C194.706 683.874 199.193 671.293 204.542 605.292L208.973 550.619L176.555 551.152C158.725 551.446 132.728 555.608 118.784 560.402C91.8637 569.658 79.6265 585.686 99.4807 585.686C134.061 585.686 135.052 705.745 100.652 727.601C83.7212 738.358 59.453 732.59 47.2832 714.917C35.4325 697.707 35.6397 695.337 51.728 664.07C87.921 593.73 85.2313 574.6 39.5259 577.284C-17.4652 580.63 -10.3638 567.041 53.1696 551.176C143.576 528.599 139.687 530.955 117.167 512.415C97.1516 495.938 74.1151 459.764 74.1151 444.812C74.1151 438.997 84.0428 437.791 107.122 440.801C153.591 446.862 169.529 458.35 174.803 489.582C178.09 509.05 182.502 515.627 191.201 514.033C205.475 511.418 208.205 479.036 198.455 428.006C188.122 373.928 181.449 370.539 112.91 384.553C44.8278 398.474 42.6031 398.608 46.1187 388.572C49.232 379.685 61.7922 375.019 232.585 319.292C301.501 296.806 380.67 270.222 408.517 260.217C461.529 241.17 521.161 236.472 546.45 249.35C560.507 256.509 560.44 257.184 543.478 279.158C533.932 291.523 520.607 313.168 513.865 327.256C501.311 353.491 485.928 437.631 491.921 447.279C493.756 450.233 497.035 472.325 499.209 496.374C503.885 548.098 545.237 672.136 570.502 710.218C588.345 737.112 636.922 782.063 648.143 782.063C660.446 782.063 693.253 733.675 693.253 715.53C693.253 693.086 709.553 706.523 726.464 742.908C745.435 783.725 747.314 829.163 731.203 857.458C720.722 875.864 715.356 876.248 671.724 861.714ZM390.268 697.265C366.37 684.929 291.718 616.847 291.438 607.134C291.376 604.981 288.556 599.065 285.172 593.986C275.188 579.005 283.938 577.275 329.525 585.215C386.766 595.184 428.394 623.098 442.213 660.777C451.006 684.751 451.168 691.642 443.154 700.831C430.952 714.82 423.269 714.302 390.268 697.265ZM300.554 415.609C302.707 399.215 306.604 383.529 309.214 380.752C313.722 375.954 388.514 391.567 396.241 398.919C404.285 406.573 389.693 415.884 356.234 424.448C336.874 429.403 317.882 436.148 314.031 439.437C300.238 451.216 296.699 444.958 300.554 415.609ZM155.193 242.47C161.274 239.092 194.442 228.343 228.9 218.584C263.358 208.824 311.451 192.823 335.775 183.025C380.958 164.824 408.321 161.501 449.099 169.261C483.017 175.716 477.177 190.634 437.122 199.859C417.866 204.293 375.576 213.862 343.145 221.122C310.714 228.382 272.593 237.634 258.431 241.681C226.734 250.739 139.104 251.409 155.193 242.47ZM112.811 185.7C91.8097 177.667 91.9814 175.762 116.497 144.819C163.609 85.3538 194.481 22.5304 190.206 -5.17968L186.995 -26L222.089 -21.5702C241.39 -19.1339 267.659 -13.6655 280.463 -9.41827C300.718 -2.69944 303.134 0.696472 299.055 16.7164C293.375 39.0273 250.211 108.77 242.084 108.77C238.886 108.77 236.27 113.564 236.27 119.424C236.27 134.031 259.771 127.848 347.701 90.105C422.158 58.1455 465.375 51.8065 490.348 69.1819C514.931 86.2863 499.403 101.757 457.652 101.757C437.271 101.757 401.512 107.79 378.186 115.164C354.86 122.538 307.931 132.463 273.899 137.22C236.766 142.41 207.195 150.463 199.948 157.359C189.261 167.528 138.705 193.652 131.967 192.487C130.552 192.243 121.932 189.188 112.811 185.7Z" fill="white" fill-opacity="0.08"/>
</svg>
