<svg width="27" height="27" viewBox="0 0 27 27" fill="none" xmlns="http://www.w3.org/2000/svg">
<path d="M13.5007 0.583374C6.37065 0.583374 0.583984 6.37004 0.583984 13.5C0.583984 20.63 6.37065 26.4167 13.5007 26.4167C20.6307 26.4167 26.4173 20.63 26.4173 13.5C26.4173 6.37004 20.6307 0.583374 13.5007 0.583374ZM19.494 9.36671C19.3002 11.4075 18.4607 16.3675 18.0344 18.6538C17.8536 19.6225 17.4919 19.9455 17.1561 19.9842C16.4069 20.0488 15.8386 19.4934 15.1152 19.0155C13.9786 18.2663 13.3327 17.8013 12.2348 17.078C10.9561 16.2384 11.7827 15.7734 12.519 15.0242C12.7127 14.8305 16.0194 11.8209 16.084 11.5496C16.093 11.5085 16.0918 11.4659 16.0805 11.4254C16.0693 11.3849 16.0483 11.3477 16.0194 11.3171C15.9419 11.2525 15.8386 11.2784 15.7482 11.2913C15.6319 11.3171 13.8236 12.5184 10.2973 14.895C9.78065 15.2438 9.31565 15.4246 8.90232 15.4117C8.43732 15.3988 7.55898 15.1534 6.90023 14.9338C6.08648 14.6755 5.45357 14.5334 5.50523 14.0813C5.53107 13.8488 5.85398 13.6163 6.46107 13.3709C10.2327 11.7305 12.7386 10.6455 13.9915 10.1288C17.5823 8.63046 18.3186 8.37212 18.8094 8.37212C18.9127 8.37212 19.1582 8.39796 19.3132 8.52712C19.4423 8.63046 19.4811 8.77254 19.494 8.87587C19.4811 8.95337 19.5069 9.18587 19.494 9.36671Z" fill="white"/>
</svg>
