<svg width="27" height="31" viewBox="0 0 27 31" fill="none" xmlns="http://www.w3.org/2000/svg">
<path d="M2.77745 4.80833C1 6.63389 1 9.55306 1 15.4V16.4333C1 22.2717 1 25.1908 2.77745 27.025C4.57183 28.8333 7.44114 28.8333 13.1882 28.8333H14.2039C19.9425 28.8333 22.8119 28.8333 24.6147 27.025C26.3922 25.1994 26.3922 22.2803 26.3922 16.4333V15.4C26.3922 9.56167 26.3922 6.6425 24.6147 4.80833C22.8203 3 19.951 3 14.2039 3H13.1882C7.44961 3 4.58029 3 2.77745 4.80833ZM5.28281 10.8619H8.19445C8.28755 15.7875 10.4205 17.8714 12.1133 18.3019V10.8619H14.8472V15.1072C16.5146 14.9264 18.2751 12.9889 18.8676 10.8533H21.593C21.3707 11.9587 20.9267 13.0056 20.2888 13.9287C19.651 14.8517 18.8329 15.631 17.8858 16.2181C18.943 16.7532 19.8766 17.5103 20.6251 18.4395C21.3736 19.3687 21.9198 20.4489 22.2278 21.6086H19.2231C18.5798 19.5678 16.9717 17.9833 14.8472 17.7681V21.6086H14.5086C8.71922 21.6086 5.41823 17.5786 5.28281 10.8619Z" fill="white"/>
</svg>
