<svg width="30" height="29" viewBox="0 0 30 29" fill="none" xmlns="http://www.w3.org/2000/svg">
<path d="M20.9043 16.9894C20.585 16.8308 18.9941 16.0774 18.6982 15.9755C18.4023 15.8679 18.1855 15.8169 17.9717 16.1341C17.7549 16.4484 17.1396 17.1479 16.9463 17.3604C16.7588 17.5699 16.5684 17.5954 16.249 17.4396C14.3506 16.5221 13.1055 15.8027 11.8545 13.7269C11.5234 13.1746 12.1855 13.2143 12.8037 12.022C12.9092 11.8124 12.8564 11.634 12.7744 11.4754C12.6924 11.3168 12.0479 9.78184 11.7783 9.15596C11.5176 8.54707 11.248 8.63203 11.0518 8.6207C10.8643 8.60937 10.6504 8.60938 10.4336 8.60938C10.2168 8.60938 9.86816 8.68867 9.57227 8.99736C9.27637 9.31172 8.44141 10.0679 8.44141 11.6028C8.44141 13.1378 9.59863 14.6246 9.75684 14.8342C9.9209 15.0437 12.0332 18.193 15.2764 19.5495C17.3271 20.4048 18.1299 20.4784 19.1553 20.3312C19.7793 20.2405 21.0654 19.5778 21.332 18.8443C21.5986 18.1137 21.5986 17.4878 21.5195 17.3575C21.4404 17.2188 21.2236 17.1395 20.9043 16.9894Z" fill="white"/>
<path d="M27.1056 9.58359C26.4435 8.06279 25.4943 6.69775 24.2843 5.52529C23.0744 4.35566 21.6623 3.43525 20.0861 2.79805C18.4748 2.14385 16.7638 1.8125 15.0002 1.8125H14.9416C13.1662 1.821 11.4465 2.16084 9.82927 2.8292C8.26774 3.4749 6.86735 4.39248 5.66911 5.56211C4.47087 6.73174 3.53044 8.09111 2.88005 9.60625C2.20622 11.1752 1.86638 12.8433 1.87517 14.5595C1.88396 16.5249 2.37028 18.4762 3.28142 20.2207V24.5254C3.28142 25.2447 3.88493 25.8281 4.62907 25.8281H9.08513C10.8898 26.7089 12.9084 27.179 14.9416 27.1875H15.0031C16.758 27.1875 18.4601 26.859 20.0627 26.2161C21.63 25.5846 23.0392 24.6783 24.2463 23.52C25.4562 22.3617 26.4084 21.008 27.0734 19.4985C27.7648 17.9353 28.1164 16.2729 28.1252 14.5566C28.134 12.8319 27.7882 11.1582 27.1056 9.58359ZM22.6789 21.9879C20.6252 23.9533 17.9006 25.0352 15.0002 25.0352H14.9504C13.1838 25.0267 11.4289 24.6019 9.87907 23.8032L9.63298 23.6758H5.50798V19.6883L5.37614 19.4504C4.54997 17.9522 4.11052 16.2559 4.10173 14.5481C4.09001 11.7246 5.20622 9.07383 7.25407 7.07725C9.29899 5.08066 12.0324 3.97617 14.9533 3.96484H15.0031C16.4679 3.96484 17.8888 4.23955 19.2277 4.7833C20.5343 5.31289 21.7062 6.07471 22.714 7.04893C23.7189 8.02031 24.5099 9.15596 25.0578 10.419C25.6261 11.7274 25.9103 13.1151 25.9045 14.5481C25.8869 17.3688 24.7414 20.0111 22.6789 21.9879Z" fill="white"/>
</svg>
