<svg width="26" height="27" viewBox="0 0 26 27" fill="none" xmlns="http://www.w3.org/2000/svg">
<path d="M7.75 0.583313H18.25C22.25 0.583313 25.5 3.94165 25.5 8.07498V18.925C25.5 20.9119 24.7362 22.8174 23.3765 24.2224C22.0169 25.6273 20.1728 26.4166 18.25 26.4166H7.75C3.75 26.4166 0.5 23.0583 0.5 18.925V8.07498C0.5 6.08807 1.26384 4.18253 2.62348 2.77757C3.98311 1.37261 5.82718 0.583313 7.75 0.583313ZM7.5 3.16665C6.30653 3.16665 5.16193 3.65656 4.31802 4.5286C3.47411 5.40064 3 6.58339 3 7.81665V19.1833C3 21.7537 5.0125 23.8333 7.5 23.8333H18.5C19.6935 23.8333 20.8381 23.3434 21.682 22.4714C22.5259 21.5993 23 20.4166 23 19.1833V7.81665C23 5.24623 20.9875 3.16665 18.5 3.16665H7.5ZM19.5625 5.10415C19.9769 5.10415 20.3743 5.27425 20.6674 5.57705C20.9604 5.87984 21.125 6.29052 21.125 6.71873C21.125 7.14694 20.9604 7.55762 20.6674 7.86041C20.3743 8.16321 19.9769 8.33331 19.5625 8.33331C19.1481 8.33331 18.7507 8.16321 18.4576 7.86041C18.1646 7.55762 18 7.14694 18 6.71873C18 6.29052 18.1646 5.87984 18.4576 5.57705C18.7507 5.27425 19.1481 5.10415 19.5625 5.10415ZM13 7.04165C14.6576 7.04165 16.2473 7.72208 17.4194 8.93325C18.5915 10.1444 19.25 11.7871 19.25 13.5C19.25 15.2128 18.5915 16.8555 17.4194 18.0667C16.2473 19.2779 14.6576 19.9583 13 19.9583C11.3424 19.9583 9.75268 19.2779 8.58058 18.0667C7.40848 16.8555 6.75 15.2128 6.75 13.5C6.75 11.7871 7.40848 10.1444 8.58058 8.93325C9.75268 7.72208 11.3424 7.04165 13 7.04165ZM13 9.62498C12.0054 9.62498 11.0516 10.0332 10.3483 10.7599C9.64509 11.4866 9.25 12.4723 9.25 13.5C9.25 14.5277 9.64509 15.5133 10.3483 16.24C11.0516 16.9667 12.0054 17.375 13 17.375C13.9946 17.375 14.9484 16.9667 15.6517 16.24C16.3549 15.5133 16.75 14.5277 16.75 13.5C16.75 12.4723 16.3549 11.4866 15.6517 10.7599C14.9484 10.0332 13.9946 9.62498 13 9.62498Z" fill="white"/>
</svg>
